####
#
#	OBJ File Generated by LightWave3D
#	LightWave3D OBJ Export v2.3
#
####
o Dollar Stack Neat.obj
mtllib Dollar Stack Neat.mtl
g default
v -5.84071 4.01397e-008 2.4745
v -5.84071 4.01397e-008 -2.4745
v -5.84071 3.59896 2.4745
v -5.84071 3.59896 -2.4745
v 5.84071 4.01397e-008 2.4745
v 5.84071 4.01397e-008 -2.4745
v 5.84071 3.59896 2.4745
v 5.84071 3.59896 -2.4745
vt 0 0
vt 0 1
vt 1 0
vt 1 1
vn -0.57735 -0.57735 0.57735
vn -0.57735 -0.57735 -0.57735
vn -0.57735 0.57735 0.57735
vn -0.57735 0.57735 -0.57735
vn 0.57735 -0.57735 0.57735
vn 0.57735 -0.57735 -0.57735
vn 0.57735 0.57735 0.57735
vn 0.57735 0.57735 -0.57735
usemtl Back
s off
f 2/2/2 6/4/6 5/3/5 1/1/1
usemtl Front
s off
f 7/3/7 8/4/8 4/2/4 3/1/3
usemtl Back
s off
f 7/3/7 3/1/3 1/1/1 5/3/5
f 6/4/6 8/4/8 7/3/7 5/3/5
f 4/2/4 8/4/8 6/4/6 2/2/2
f 3/1/3 4/2/4 2/2/2 1/1/1
